<mxfile host="app.diagrams.net" agent="Mozilla/5.0 (Windows NT 10.0; Win64; x64; rv:130.0) Gecko/20100101 Firefox/130.0" version="24.7.16">
  <diagram id="C5RBs43oDa-KdzZeNtuy" name="Page-1">
    <mxGraphModel dx="1877" dy="511" grid="1" gridSize="10" guides="1" tooltips="1" connect="1" arrows="1" fold="1" page="1" pageScale="1" pageWidth="827" pageHeight="1169" math="0" shadow="0">
      <root>
        <mxCell id="WIyWlLk6GJQsqaUBKTNV-0" />
        <mxCell id="WIyWlLk6GJQsqaUBKTNV-1" parent="WIyWlLk6GJQsqaUBKTNV-0" />
        <mxCell id="zyKy1l9Rlt5xSclEsOvf-24" style="edgeStyle=orthogonalEdgeStyle;rounded=0;orthogonalLoop=1;jettySize=auto;html=1;exitX=1;exitY=0.5;exitDx=0;exitDy=0;entryX=0;entryY=0.5;entryDx=0;entryDy=0;" edge="1" parent="WIyWlLk6GJQsqaUBKTNV-1" source="zyKy1l9Rlt5xSclEsOvf-1" target="zyKy1l9Rlt5xSclEsOvf-3">
          <mxGeometry relative="1" as="geometry" />
        </mxCell>
        <mxCell id="zyKy1l9Rlt5xSclEsOvf-1" value="配置pgxc_ctl" style="rounded=1;whiteSpace=wrap;html=1;" vertex="1" parent="WIyWlLk6GJQsqaUBKTNV-1">
          <mxGeometry x="-260" y="200" width="100" height="40" as="geometry" />
        </mxCell>
        <mxCell id="zyKy1l9Rlt5xSclEsOvf-25" style="edgeStyle=orthogonalEdgeStyle;rounded=0;orthogonalLoop=1;jettySize=auto;html=1;exitX=1;exitY=0.5;exitDx=0;exitDy=0;entryX=0;entryY=0.5;entryDx=0;entryDy=0;" edge="1" parent="WIyWlLk6GJQsqaUBKTNV-1" source="zyKy1l9Rlt5xSclEsOvf-3" target="zyKy1l9Rlt5xSclEsOvf-7">
          <mxGeometry relative="1" as="geometry" />
        </mxCell>
        <mxCell id="zyKy1l9Rlt5xSclEsOvf-3" value="配置集中式参数" style="rounded=1;whiteSpace=wrap;html=1;" vertex="1" parent="WIyWlLk6GJQsqaUBKTNV-1">
          <mxGeometry x="-120" y="200" width="100" height="40" as="geometry" />
        </mxCell>
        <mxCell id="zyKy1l9Rlt5xSclEsOvf-33" style="edgeStyle=orthogonalEdgeStyle;rounded=0;orthogonalLoop=1;jettySize=auto;html=1;exitX=1;exitY=0.5;exitDx=0;exitDy=0;" edge="1" parent="WIyWlLk6GJQsqaUBKTNV-1" source="zyKy1l9Rlt5xSclEsOvf-7" target="zyKy1l9Rlt5xSclEsOvf-9">
          <mxGeometry relative="1" as="geometry" />
        </mxCell>
        <mxCell id="zyKy1l9Rlt5xSclEsOvf-7" value="初始化、启动DN" style="rounded=1;whiteSpace=wrap;html=1;" vertex="1" parent="WIyWlLk6GJQsqaUBKTNV-1">
          <mxGeometry x="20" y="200" width="100" height="40" as="geometry" />
        </mxCell>
        <mxCell id="zyKy1l9Rlt5xSclEsOvf-34" style="edgeStyle=orthogonalEdgeStyle;rounded=0;orthogonalLoop=1;jettySize=auto;html=1;exitX=1;exitY=0.5;exitDx=0;exitDy=0;entryX=0;entryY=0.5;entryDx=0;entryDy=0;" edge="1" parent="WIyWlLk6GJQsqaUBKTNV-1" source="zyKy1l9Rlt5xSclEsOvf-9" target="zyKy1l9Rlt5xSclEsOvf-12">
          <mxGeometry relative="1" as="geometry" />
        </mxCell>
        <mxCell id="zyKy1l9Rlt5xSclEsOvf-9" value="登录DN配路由" style="rounded=1;whiteSpace=wrap;html=1;" vertex="1" parent="WIyWlLk6GJQsqaUBKTNV-1">
          <mxGeometry x="160" y="200" width="100" height="40" as="geometry" />
        </mxCell>
        <mxCell id="zyKy1l9Rlt5xSclEsOvf-11" style="edgeStyle=orthogonalEdgeStyle;rounded=0;orthogonalLoop=1;jettySize=auto;html=1;exitX=0.5;exitY=1;exitDx=0;exitDy=0;" edge="1" parent="WIyWlLk6GJQsqaUBKTNV-1">
          <mxGeometry relative="1" as="geometry">
            <mxPoint x="680" y="340" as="sourcePoint" />
            <mxPoint x="680" y="340" as="targetPoint" />
          </mxGeometry>
        </mxCell>
        <mxCell id="zyKy1l9Rlt5xSclEsOvf-35" style="edgeStyle=orthogonalEdgeStyle;rounded=0;orthogonalLoop=1;jettySize=auto;html=1;exitX=0.5;exitY=1;exitDx=0;exitDy=0;entryX=0.5;entryY=0;entryDx=0;entryDy=0;" edge="1" parent="WIyWlLk6GJQsqaUBKTNV-1" source="zyKy1l9Rlt5xSclEsOvf-12" target="zyKy1l9Rlt5xSclEsOvf-14">
          <mxGeometry relative="1" as="geometry" />
        </mxCell>
        <mxCell id="zyKy1l9Rlt5xSclEsOvf-12" value="停止DN" style="rounded=1;whiteSpace=wrap;html=1;" vertex="1" parent="WIyWlLk6GJQsqaUBKTNV-1">
          <mxGeometry x="300" y="200" width="100" height="40" as="geometry" />
        </mxCell>
        <mxCell id="zyKy1l9Rlt5xSclEsOvf-36" style="edgeStyle=orthogonalEdgeStyle;rounded=0;orthogonalLoop=1;jettySize=auto;html=1;exitX=0;exitY=0.5;exitDx=0;exitDy=0;" edge="1" parent="WIyWlLk6GJQsqaUBKTNV-1" source="zyKy1l9Rlt5xSclEsOvf-14" target="zyKy1l9Rlt5xSclEsOvf-16">
          <mxGeometry relative="1" as="geometry" />
        </mxCell>
        <mxCell id="zyKy1l9Rlt5xSclEsOvf-14" value="配置pgxc_ctl" style="rounded=1;whiteSpace=wrap;html=1;" vertex="1" parent="WIyWlLk6GJQsqaUBKTNV-1">
          <mxGeometry x="300" y="270" width="100" height="40" as="geometry" />
        </mxCell>
        <mxCell id="zyKy1l9Rlt5xSclEsOvf-37" style="edgeStyle=orthogonalEdgeStyle;rounded=0;orthogonalLoop=1;jettySize=auto;html=1;exitX=0;exitY=0.5;exitDx=0;exitDy=0;entryX=1;entryY=0.5;entryDx=0;entryDy=0;" edge="1" parent="WIyWlLk6GJQsqaUBKTNV-1" source="zyKy1l9Rlt5xSclEsOvf-16" target="zyKy1l9Rlt5xSclEsOvf-19">
          <mxGeometry relative="1" as="geometry" />
        </mxCell>
        <mxCell id="zyKy1l9Rlt5xSclEsOvf-16" value="初始化、启动GTM" style="rounded=1;whiteSpace=wrap;html=1;" vertex="1" parent="WIyWlLk6GJQsqaUBKTNV-1">
          <mxGeometry x="160" y="270" width="100" height="40" as="geometry" />
        </mxCell>
        <mxCell id="zyKy1l9Rlt5xSclEsOvf-31" style="edgeStyle=orthogonalEdgeStyle;rounded=0;orthogonalLoop=1;jettySize=auto;html=1;exitX=0;exitY=0.5;exitDx=0;exitDy=0;entryX=1;entryY=0.5;entryDx=0;entryDy=0;" edge="1" parent="WIyWlLk6GJQsqaUBKTNV-1" source="zyKy1l9Rlt5xSclEsOvf-19" target="zyKy1l9Rlt5xSclEsOvf-21">
          <mxGeometry relative="1" as="geometry" />
        </mxCell>
        <mxCell id="zyKy1l9Rlt5xSclEsOvf-19" value="修改CN和DN参数" style="rounded=1;whiteSpace=wrap;html=1;" vertex="1" parent="WIyWlLk6GJQsqaUBKTNV-1">
          <mxGeometry x="20" y="270" width="100" height="40" as="geometry" />
        </mxCell>
        <mxCell id="zyKy1l9Rlt5xSclEsOvf-32" style="edgeStyle=orthogonalEdgeStyle;rounded=0;orthogonalLoop=1;jettySize=auto;html=1;exitX=0;exitY=0.5;exitDx=0;exitDy=0;entryX=1;entryY=0.5;entryDx=0;entryDy=0;" edge="1" parent="WIyWlLk6GJQsqaUBKTNV-1" source="zyKy1l9Rlt5xSclEsOvf-21" target="zyKy1l9Rlt5xSclEsOvf-23">
          <mxGeometry relative="1" as="geometry" />
        </mxCell>
        <mxCell id="zyKy1l9Rlt5xSclEsOvf-21" value="启动CN和DN节点" style="rounded=1;whiteSpace=wrap;html=1;" vertex="1" parent="WIyWlLk6GJQsqaUBKTNV-1">
          <mxGeometry x="-120" y="270" width="100" height="40" as="geometry" />
        </mxCell>
        <mxCell id="zyKy1l9Rlt5xSclEsOvf-23" value="配置路由" style="rounded=1;whiteSpace=wrap;html=1;" vertex="1" parent="WIyWlLk6GJQsqaUBKTNV-1">
          <mxGeometry x="-260" y="270" width="100" height="40" as="geometry" />
        </mxCell>
      </root>
    </mxGraphModel>
  </diagram>
</mxfile>
